<?xml version="1.0" encoding="UTF-8" standalone="no"?>
<svg
   xmlns:dc="http://purl.org/dc/elements/1.1/"
   xmlns:cc="http://creativecommons.org/ns#"
   xmlns:rdf="http://www.w3.org/1999/02/22-rdf-syntax-ns#"
   xmlns:svg="http://www.w3.org/2000/svg"
   xmlns="http://www.w3.org/2000/svg"
   xmlns:sodipodi="http://sodipodi.sourceforge.net/DTD/sodipodi-0.dtd"
   xmlns:inkscape="http://www.inkscape.org/namespaces/inkscape"
   width="210mm"
   height="297mm"
   viewBox="0 0 210 297"
   version="1.1"
   id="svg148"
   inkscape:version="1.0.1 (c497b03c, 2020-09-10)"
   sodipodi:docname="logo-white.svg">
  <defs
     id="defs142">
    <rect
       x="31.365927"
       y="90.470428"
       width="55.47715"
       height="26.88508"
       id="rect857" />
    <rect
       x="31.365927"
       y="90.470428"
       width="55.47715"
       height="26.88508"
       id="rect121" />
    <rect
       x="31.365927"
       y="90.470428"
       width="55.47715"
       height="26.88508"
       id="rect922" />
    <rect
       x="31.365927"
       y="90.470428"
       width="55.47715"
       height="26.88508"
       id="rect124" />
  </defs>
  <sodipodi:namedview
     id="base"
     pagecolor="#ffffff"
     bordercolor="#666666"
     borderopacity="1.0"
     inkscape:pageopacity="0.0"
     inkscape:pageshadow="2"
     inkscape:zoom="0.35"
     inkscape:cx="400"
     inkscape:cy="560"
     inkscape:document-units="mm"
     inkscape:current-layer="layer1"
     inkscape:document-rotation="0"
     showgrid="false"
     inkscape:window-width="1252"
     inkscape:window-height="1027"
     inkscape:window-x="0"
     inkscape:window-y="25"
     inkscape:window-maximized="0" />
  <metadata
     id="metadata145">
    <rdf:RDF>
      <cc:Work
         rdf:about="">
        <dc:format>image/svg+xml</dc:format>
        <dc:type
           rdf:resource="http://purl.org/dc/dcmitype/StillImage" />
        <dc:title></dc:title>
      </cc:Work>
    </rdf:RDF>
  </metadata>
  <g
     inkscape:label="Layer 1"
     inkscape:groupmode="layer"
     id="layer1">
    <text
       xml:space="preserve"
       id="text855"
       style="font-style:italic;font-weight:500;font-size:19.75560000000000116px;line-height:1.25;font-family:Cochin;-inkscape-font-specification:'Cochin Medium Italic';white-space:pre;shape-inside:url(#rect857);"
       transform="translate(70.374783,7.2334363)"
       inkscape:export-xdpi="96"
       inkscape:export-ydpi="96"><tspan
         x="31.365234"
         y="107.80906"><tspan
           style="shape-inside:url(#rect857)">pb</tspan></tspan></text>
    <ellipse
       style="opacity:1;fill:#512100;fill-opacity:0.00403227;stroke:#000000;stroke-width:1.265;stroke-linejoin:round;stroke-miterlimit:4;stroke-dasharray:none;stroke-opacity:1"
       id="path897"
       cx="108.88873"
       cy="111.1464"
       rx="12.482358"
       ry="11.522177"
       inkscape:export-xdpi="96"
       inkscape:export-ydpi="96" />
    <text
       xml:space="preserve"
       id="text918"
       style="font-style:italic;font-weight:500;font-size:19.75560000000000116px;line-height:1.25;font-family:Cochin;-inkscape-font-specification:'Cochin Medium Italic';white-space:pre;shape-inside:url(#rect922);"
       transform="translate(70.374783,7.2334363)"
       inkscape:export-xdpi="96"
       inkscape:export-ydpi="96"><tspan
         x="31.365234"
         y="107.80906"><tspan
           style="shape-inside:url(#rect857)">pb</tspan></tspan></text>
    <ellipse
       style="opacity:1;fill:#512100;fill-opacity:0.00403227;stroke:#000000;stroke-width:1.265;stroke-linejoin:round;stroke-miterlimit:4;stroke-dasharray:none;stroke-opacity:1"
       id="ellipse920"
       cx="108.88873"
       cy="111.1464"
       rx="12.482358"
       ry="11.522177"
       inkscape:export-xdpi="96"
       inkscape:export-ydpi="96" />
    <rect
       style="opacity:1;fill:#ff0000;fill-opacity:0.00403227;stroke:#000000;stroke-width:1.29029;stroke-linejoin:round;stroke-opacity:1"
       id="rect957"
       width="27.283308"
       height="25.380323"
       x="95.215492"
       y="98.434837"
       inkscape:export-xdpi="96"
       inkscape:export-ydpi="96" />
    <path
       style="fill:#2852e2;fill-opacity:1;stroke:none;stroke-width:0.106258"
       d="m 95.944079,103.92302 -0.0057,-4.808193 5.233221,0.0052 5.23323,0.0052 -1.00945,0.259837 c -4.50092,1.158566 -7.970394,4.356326 -9.185528,8.466166 l -0.260162,0.87993 z"
       id="path961"
       inkscape:export-xdpi="96"
       inkscape:export-ydpi="96" />
    <path
       style="fill:#dacd2a;fill-opacity:1;stroke:none;stroke-width:0.106258"
       d="m 95.891144,118.21477 0.0059,-4.91445 0.199167,0.75975 c 0.712253,2.71697 2.551086,5.27194 4.995789,6.94141 1.18251,0.80752 3.18908,1.67955 4.62224,2.00876 0.27997,0.0643 -1.32476,0.10127 -4.70193,0.1083 l -5.126969,0.0107 z"
       id="path963"
       inkscape:export-xdpi="96"
       inkscape:export-ydpi="96" />
    <path
       style="fill:#3cddd6;fill-opacity:1;stroke:none;stroke-width:0.106258"
       d="m 112.435,122.90936 c 2.3203,-0.62341 4.23884,-1.68735 5.89368,-3.26837 1.49027,-1.4238 2.55546,-3.10274 3.1801,-5.01244 l 0.29543,-0.9032 0.004,4.70194 0.004,4.70193 -5.07384,-0.007 -5.07383,-0.007 z"
       id="path965"
       inkscape:export-xdpi="96"
       inkscape:export-ydpi="96" />
    <path
       style="fill:#d2593d;fill-opacity:1;stroke:none;stroke-width:0.106258"
       d="m 121.57153,107.87055 c -0.10117,-0.3857 -0.37166,-1.10187 -0.6011,-1.59148 -1.57598,-3.36305 -4.75054,-5.92201 -8.56196,-6.901659 l -0.95633,-0.245804 5.1801,-0.0084 5.1801,-0.0084 v 4.728503 c 0,2.60067 -0.0128,4.72849 -0.0284,4.72849 -0.0156,0 -0.11121,-0.31557 -0.21237,-0.70127 z"
       id="path967"
       inkscape:export-xdpi="96"
       inkscape:export-ydpi="96" />
    <path
       style="fill:#ffffff;stroke:none;stroke-width:0.106258"
       d="m 106.98929,121.84259 c -1.59986,-0.23054 -3.53136,-0.97665 -4.9564,-1.91457 l -0.70607,-0.46471 0.7592,-2.1783 0.7592,-2.1783 0.47816,0.12661 c 0.62845,0.1664 1.17869,0.0817 2.00602,-0.30878 1.3108,-0.61866 3.04476,-2.57331 3.63643,-4.09927 0.32415,-0.83601 0.34025,-2.0376 0.0351,-2.61933 -0.3435,-0.65479 -0.69055,-0.85693 -1.46156,-0.85129 -0.83158,0.006 -1.35715,0.27067 -2.03789,1.02593 -0.5108,0.56671 -0.57494,0.48444 -0.19884,-0.25508 0.0803,-0.15781 0.14592,-0.31531 0.14592,-0.34999 0,-0.0347 -0.34147,-0.049 -0.75883,-0.0318 l -0.75883,0.0312 -0.76399,2.12516 c -0.42019,1.16885 -1.25679,3.53575 -1.85911,5.25979 -0.60232,1.72404 -1.11691,3.15853 -1.14354,3.18775 -0.0266,0.0292 -0.213838,-0.13813 -0.416024,-0.3719 -1.910072,-2.20842 -2.913883,-5.23919 -2.592322,-7.8269 0.317257,-2.55309 1.372799,-4.65485 3.236166,-6.44375 3.05735,-2.93519 7.41514,-4.061924 11.59137,-2.99704 0.8956,0.22836 2.2627,0.72943 2.34251,0.85857 0.0259,0.0419 -0.21097,0.78651 -0.5264,1.65465 -1.37699,3.78978 -3.08592,8.36565 -3.53404,9.46278 -0.36603,0.89618 -0.46778,1.26296 -0.412,1.4852 0.098,0.39038 0.80124,1.04899 1.20669,1.13008 0.43496,0.087 1.39329,-0.0789 1.99605,-0.34553 1.18896,-0.52593 2.89108,-2.08617 3.64024,-3.33681 0.88875,-1.48364 1.19898,-2.97151 0.76368,-3.6625 -0.66115,-1.04948 -2.13908,-0.77489 -3.73346,0.69366 -0.38634,0.35584 -0.63362,0.52497 -0.5876,0.40189 0.0437,-0.11689 0.50013,-1.31229 1.01428,-2.65646 0.51416,-1.34417 1.07585,-2.8193 1.24821,-3.27807 l 0.31337,-0.83412 0.7907,0.62985 c 2.23051,1.77674 3.61828,4.0656 4.03635,6.65717 0.18191,1.12767 0.0775,3.18955 -0.21327,4.21012 -1.02131,3.58516 -4.12933,6.62042 -7.87782,7.6934 -1.57326,0.45034 -3.84091,0.60426 -5.46163,0.37071 z"
       id="path79"
       inkscape:export-xdpi="96"
       inkscape:export-ydpi="96" />
    <path
       style="fill:#ffffff;stroke:none;stroke-width:0.106258"
       d="m 103.872,114.32596 c -0.4329,-0.40439 -0.48987,-0.70535 -0.28395,-1.50003 0.55903,-2.15739 1.80189,-4.23135 2.70806,-4.51896 0.36138,-0.1147 0.93531,0.036 1.11516,0.29274 0.583,0.83235 -0.63209,4.55064 -1.83235,5.60715 -0.62144,0.54701 -1.20523,0.58775 -1.70692,0.1191 z"
       id="path81"
       inkscape:export-xdpi="96"
       inkscape:export-ydpi="96" />
    <path
       style="fill:#ffffff;stroke:none;stroke-width:0.106258"
       d="m 112.1443,114.44243 c -0.20373,-0.10218 -0.42406,-0.29486 -0.48962,-0.42819 -0.32641,-0.66384 0.70442,-3.26202 1.86092,-4.69037 0.48369,-0.59739 1.2222,-1.07082 1.67036,-1.07082 0.72579,0 0.87065,0.85931 0.39764,2.35876 -0.5778,1.83165 -1.59694,3.44022 -2.41494,3.81164 -0.5448,0.24738 -0.56812,0.24781 -1.02436,0.019 z"
       id="path83"
       inkscape:export-xdpi="96"
       inkscape:export-ydpi="96" />
  </g>
</svg>
